# xmcd
#
# Track frame offsets:
#      150
#      14925
#      26277
#      37995
#      51722
#      67065
#      79862
#      89715
#      108062
#      118062
#      137237
# 
# Disc length: 2019 seconds
#
# Revision: 6
# Processed by: cddbd v1.4PL0 Copyright (c) Steve Scherf et al.
#
# Submitted via: FreeRIP 1.21
#
DISCID=9e07e10b
DTITLE=BR5-49 - BR5-49
DYEAR=1996
DGENRE=Country
TTITLE0=Even If It's Wrong
TTITLE1=Cherokee Boogie
TTITLE2=Honky Tonk Song
TTITLE3=Lifetime to Prove
TTITLE4=Little Ramona (Gone Hillbilly Nuts)
TTITLE5=Crazy Arms
TTITLE6=I Ain't Never
TTITLE7=Chains of This Town
TTITLE8=Are You Gettin' Tired Of Me
TTITLE9=Hickory Wind
TTITLE10=One Long Saturday Night
EXTD=ID3G:   2
EXTT0=
EXTT1=
EXTT2=
EXTT3=
EXTT4=
EXTT5=
EXTT6=
EXTT7=
EXTT8=
EXTT9=
EXTT10=
PLAYORDER=
